#!OML:ASF H:\ColoradoDance\Project 1\Capture day 1\Session 8\male.ASF
:FULLY-SPECIFIED
:DEGREES
152
upperback -2.601310 3.952100 0.935965
rfoot -25.463301 -12.696000
lradius 21.227200
lthumb 5.932020 54.244900
rradius 31.455799
lwrist -17.840401
rhand -32.325600 -4.424950
rhumerus -24.379999 3.681320 -84.601601
lowerneck -3.137840 -2.295230 2.887590
lhand -20.422400 24.347900
ltibia 24.921400
head 1.209060 -1.569320 -0.898625
rwrist 9.996470
lfingers 7.125020
rtoes -4.578960
lowerback 1.484550 2.759340 4.649940
rfingers 7.125020
lclavicle -0.000000 0.000000
upperneck 2.422240 -3.155880 -1.144160
rfemur -8.309900 0.283892 34.498199
thorax -3.271450 1.901640 -1.796940
rclavicle -0.000000 0.000000
rtibia 30.559799
lfoot -14.966900 14.980400
lhumerus -53.942001 17.773199 50.692501
rthumb -5.563080 -394.332001
root -23.572001 19.153000 -5.884300 1808.069946 -184.630997 -712.520996
ltoes -0.457689
lfemur -41.708199 -14.394500 -2.210190
153
upperback -3.432780 2.731950 0.022011
rfoot -21.140400 -16.456400
lradius 25.255800
lthumb 5.949790 55.668900
rradius 20.802700
lwrist -12.569800
rhand -27.632299 -3.429460
rhumerus -39.098900 -6.721930 -77.971199
lowerneck -3.439160 -4.354520 0.842065
lhand -20.403999 25.772400
ltibia 50.215099
head 1.544230 -2.915170 -0.397055
rwrist 17.655899
lfingers 7.125020
rtoes -0.102950
lowerback 1.806070 2.008880 3.275840
rfingers 7.125020
lclavicle 0.000000 0.000000
upperneck 3.245740 -5.842800 -0.389591
rfemur -16.359400 -1.976120 31.250799
thorax -4.403360 1.208170 -1.956830
rclavicle 0.000000 0.000000
rtibia 32.456902
lfoot -13.682400 -1.740310
lhumerus -45.316898 12.039800 57.192402
rthumb -1.030760 -393.407013
root -23.811300 19.520800 -3.508990 1806.329956 -176.638000 -715.640015
ltoes -0.287516
lfemur -31.228800 -7.638550 -10.902700
154
upperback -3.638940 0.410748 0.201279
rfoot -14.865000 -19.198700
lradius 27.487499
lthumb 4.752650 55.031101
rradius 22.389200
lwrist -12.877000
rhand -29.229799 -2.014440
rhumerus -51.294399 -9.109410 -73.910004
lowerneck -3.776780 -4.300610 0.525307
lhand -21.643900 25.104401
ltibia 45.971100
head 1.552410 -2.874590 -0.144242
rwrist 17.360500
lfingers 7.125020
rtoes 3.403370
lowerback 1.681170 0.319228 1.813120
rfingers 7.125020
lclavicle 0.000000 0.000000
upperneck 2.991730 -5.780420 0.274502
rfemur -22.535101 -2.051250 27.862301
thorax -4.684350 0.100044 -0.827958
rclavicle 0.000000 0.000000
rtibia 31.343700
lfoot -6.933680 -7.818690
lhumerus -39.107101 8.151840 64.652901
rthumb -2.573650 -391.979004
root -24.160999 19.751699 -1.525690 1806.260010 -171.395004 -717.052002
ltoes 3.073100
lfemur -8.236810 -9.085020 -8.033510
155
upperback -4.011270 -0.092331 -0.373476
rfoot -6.358660 -18.271900
lradius 30.005199
lthumb 5.583740 55.193600
rradius 26.523100
lwrist -10.648300
rhand -22.298901 -6.579450
rhumerus -54.098598 -10.627600 -73.692596
lowerneck -4.258200 -2.991650 1.209440
lhand -20.783100 25.287100
ltibia 18.921900
head 1.694720 -2.024170 -0.010738
rwrist 11.157000
lfingers 7.125020
rtoes -0.576331
lowerback 0.798295 0.039364 0.287106
rfingers 7.125020
lclavicle -0.000000 -0.000000
upperneck 3.156630 -4.118470 0.978563
rfemur -35.046001 3.161590 20.889200
thorax -4.581360 -0.124128 -0.536976
rclavicle -0.000000 -0.000000
rtibia 35.682499
lfoot -0.991244 -16.747101
lhumerus -37.664902 6.647410 69.943199
rthumb 4.120110 -396.519012
root -24.976200 19.484699 0.817246 1808.520020 -176.554993 -719.335999
ltoes 8.356500
lfemur 8.175960 -19.903000 -14.160100
156
upperback -2.893570 -2.102010 0.268396
rfoot 9.713140 -11.052900
lradius 28.353500
lthumb 3.227050 56.868401
rradius 33.074600
lwrist -11.751000
rhand -22.610300 -12.362000
rhumerus -49.716999 -7.216960 -78.060898
lowerneck -2.418510 -8.378510 -3.489760
lhand -23.223700 26.913099
ltibia 15.476400
head 1.891900 -5.522540 2.323620
rwrist 6.660250
lfingers 7.125020
rtoes 9.668510
lowerback 2.514310 -1.533370 -2.366930
rfingers 7.125020
lclavicle -0.000000 -0.000000
upperneck 2.716500 -11.250100 6.402960
rfemur -47.946400 4.849770 18.851999
thorax -4.298820 -0.945506 1.730120
rclavicle -0.000000 -0.000000
rtibia 29.352800
lfoot -21.697100 0.944256
lhumerus -38.557701 6.274260 74.342300
rthumb 3.819410 -402.307007
root -26.185699 19.225800 4.130900 1811.290039 -194.850998 -718.833008
ltoes 7.183040
lfemur 1.608420 -16.746799 -20.194300
157
upperback -2.495320 -3.323190 1.119920
rfoot -2.887700 -7.127070
lradius 23.861700
lthumb 4.245510 54.599899
rradius 28.246700
lwrist -16.922899
rhand -32.089401 -8.328540
rhumerus -44.704899 -5.359490 -79.046799
lowerneck -3.049650 -9.793920 -4.380150
lhand -22.169100 24.662500
ltibia 20.020300
head 3.342870 -6.483070 1.712300
rwrist 6.187980
lfingers 7.125020
rtoes -9.116010
lowerback 1.953300 -2.459910 -2.641640
rfingers 7.125020
lclavicle -0.000000 0.000000
upperneck 6.600100 -13.164300 4.678420
rfemur -42.852699 2.107120 23.980000
thorax -3.447270 -1.561270 2.789510
rclavicle -0.000000 0.000000
rtibia 34.512600
lfoot -22.832300 18.057899
lhumerus -47.554699 12.298200 68.332199
rthumb -5.335080 -398.240997
root -26.907600 19.626301 6.315810 1813.770020 -223.602005 -714.841003
ltoes 9.944660
lfemur -5.594200 -7.878340 -21.185699
158
upperback -3.227170 -0.944811 1.121010
rfoot -5.713370 -14.037700
lradius 25.660000
lthumb 4.210060 55.206200
rradius 25.054199
lwrist -14.779500
rhand -37.146900 -1.480160
rhumerus -46.721298 -11.781000 -72.142799
lowerneck -4.253430 -6.199060 -1.841100
lhand -22.205799 25.268000
ltibia 23.932400
head 2.435020 -4.085150 1.202920
rwrist 8.880580
lfingers 7.125020
rtoes -5.978360
lowerback 1.510600 -0.741426 -1.017240
rfingers 7.125020
lclavicle 0.000000 0.000000
upperneck 4.559930 -8.359060 3.721300
rfemur -41.269699 6.675550 17.138800
thorax -4.134640 -0.399763 1.772530
rclavicle 0.000000 0.000000
rtibia 36.111698
lfoot -26.558001 5.000440
lhumerus -48.090199 11.473500 60.271999
rthumb -10.216400 -391.212006
root -26.949400 19.721001 7.923380 1823.920044 -244.776993 -707.242004
ltoes 1.022400
lfemur -12.888800 -3.306140 -18.592300
159
upperback -2.822680 0.002203 0.157274
rfoot -13.511200 -19.762199
lradius 27.266500
lthumb 7.810540 54.413300
rradius 23.441700
lwrist -12.794200
rhand -36.099899 -0.924037
rhumerus -49.560200 -13.705800 -69.352303
lowerneck -4.323010 -3.318890 0.424625
lhand -18.476400 24.577499
ltibia 22.606199
head 2.285400 -2.203420 0.208947
rwrist 11.367400
lfingers 7.125020
rtoes -10.851800
lowerback 1.419780 0.017442 -1.586070
rfingers 7.125020
lclavicle -0.000000 -0.000000
upperneck 4.838550 -4.528670 1.360160
rfemur -40.992298 12.668100 8.035880
thorax -3.698970 0.060020 1.049850
rclavicle -0.000000 -0.000000
rtibia 31.764900
lfoot -21.032400 10.165000
lhumerus -43.548401 11.810400 53.623600
rthumb -9.206190 -390.703003
root -25.864100 19.573601 9.002220 1830.270020 -258.066986 -700.047974
ltoes 8.961160
lfemur -7.744160 -7.949630 -18.721901
160
upperback -2.920850 -0.827023 0.159929
rfoot -23.371599 -26.225000
lradius 36.536598
lthumb 18.286800 43.615799
rradius 20.016001
lwrist -6.744330
rhand -34.156700 4.165660
rhumerus -51.877499 -17.302299 -65.677803
lowerneck -4.987200 -3.067760 0.192717
lhand -7.607180 14.455300
ltibia 16.184700
head 2.551710 -2.036610 -0.315765
rwrist 13.254200
lfingers 7.125020
rtoes -6.767350
lowerback 0.637248 -0.608490 -2.056630
rfingers 7.125020
lclavicle -0.000000 0.000000
upperneck 5.388410 -4.082390 -0.412010
rfemur -39.884102 11.236200 0.388665
thorax -3.327260 -0.340994 1.344800
rclavicle -0.000000 0.000000
rtibia 26.695801
lfoot -22.081900 12.154800
lhumerus -39.191299 8.973610 64.186996
rthumb -7.330870 -385.687012
root -23.662300 19.146999 10.050000 1815.670044 -259.760986 -714.228027
ltoes -8.723680
lfemur 3.590160 -11.445900 -18.418800
161
upperback -3.564400 -1.783360 0.461468
rfoot -4.762330 -14.581800
lradius 33.935001
lthumb 8.249490 53.576599
rradius 25.916700
lwrist -7.478880
rhand -32.214901 7.689420
rhumerus -50.224701 -15.944000 -73.117401
lowerneck -5.546540 -1.581460 0.628422
lhand -18.021601 23.757601
ltibia 16.369900
head 3.506790 -1.032900 -0.229590
rwrist 11.370600
lfingers 7.125020
rtoes -8.429940
lowerback -0.706994 -1.371550 -1.253750
rfingers 7.125020
lclavicle -0.000000 -0.000000
upperneck 7.853530 -2.143880 -0.056452
rfemur -33.121498 6.738630 14.229700
thorax -3.211340 -0.824525 1.211640
rclavicle -0.000000 -0.000000
rtibia 30.359501
lfoot -3.429550 10.517900
lhumerus -43.060902 8.400660 71.062401
rthumb -5.456240 -382.220001
root -20.144699 19.228800 11.791900 1829.780029 -263.019989 -697.893982
ltoes -26.282600
lfemur 14.929500 -10.930500 -11.886500
